<svg xmlns="http://www.w3.org/2000/svg" viewBox="0 0 200.77 201.42"><path d="M94.864 26.135c-12.194 1.438-22.452 4.767-31.609 10.257-2.415 1.447-3.386 2.121-7.866 5.454-4.614 3.432-11.455 10.712-15.761 16.771-4.401 6.192-8.346 14.76-10.457 22.712-1.975 7.443-2.569 12.045-2.569 19.913v4.705l-2.664-1.975c-4.619-3.426-8.769-5.123-11.557-4.726-3.978.566-6.358 3.613-6.358 8.139 0 1.547.201 2.23 1.088 3.701 1.521 2.525 3.315 3.446 6.205 3.186 1.159-.104 2.84-.479 3.737-.832 1.721-.678 5.801-1.539 8.452-1.783 1.725-.159 1.698-.187 2.125 2.222.196 1.101.328 1.255.949 1.099 1.878-.471 7.375-.587 10.71-.225 11.876 1.286 24.609 7.214 37.171 17.305 4.299 3.453 13.253 12.111 16.586 16.036 1.276 1.503 2.32 2.801 2.32 2.884 0 .082-1.082-.125-2.405-.461-11.066-2.81-25.414-.479-38.873 6.315l-1.625.82.762.812c.863.917.887.86-.69 1.65-5.171 2.589-10.958 8.373-13.56 13.552-5.15 10.248-3.688 19.402 3.878 24.297 3.518 2.276 6.13 3.142 9.477 3.142 2.526 0 3.017-.113 5.152-1.181 2.923-1.463 5.577-4.024 7.968-7.692 2.17-3.329 3.347-5.892 5.369-11.685.84-2.404 2.059-5.467 2.71-6.805 1.276-2.624 1.324-2.646 3.474-1.553.483.246.972.352 1.088.237.115-.116.209-.025.209.2 0 .226.151.317.335.204.184-.114.335-.069.335.101 0 .169.339.243.753.164 1.047-.201 2.593.446 2.593 1.084 0 .292.14.444.311.338.172-.106.408-.037.525.153.118.19.354.259.525.153.172-.106.312-.017.312.198 0 .214.226.303.502.197.276-.106.502-.031.502.167s.225.274.502.168c.276-.106.501-.031.501.167s.226.273.502.167c.276-.106.502-.03.502.168s.208.28.461.183c.254-.098.631-.008.837.198.206.207.375.252.375.1 0-.151.23-.084.51.148.281.233.606.328.723.211.116-.116.395-.06.618.126.545.452 1.422.08 1.673-.709.154-.487.518-.638 1.529-.638 1.353 0 1.413.06 1.793 1.787.15.68.357.894.727.752.285-.11.693-.086.907.053.378.245.768.299 3.901.534.828.062 2.055.226 2.725.364l1.219.252.23-1.671c.228-1.659.24-1.672 1.567-1.799 1.458-.139 1.547-.066 2.302 1.903l.513 1.338 1.996-.059c2.094-.063 4.877-.29 6.012-.491.567-.101.695-.452.836-2.294.145-1.884.261-2.188.864-2.275.498-.071.972.298 1.664 1.297 1.54 2.223 3.649 3.655 5.383 3.655 1.201 0 1.689-.21 2.782-1.197.729-.659 1.416-1.484 1.527-1.834.111-.35.381-.602.6-.559.455.088.506-1.458.124-3.788-.248-1.516-.244-1.525 1.016-2.127l1.265-.605 1.755 1.96c1.839 2.053 2.171 2.222 3.265 1.66.368-.19.782-.313.92-.274.138.04.251-.088.251-.283 0-.195.15-.261.334-.147.184.113.335.038.335-.168 0-.205.151-.281.335-.167.184.114.334.047.334-.148 0-.194.113-.328.251-.295.416.096 2.092-.813 2.092-1.136 0-.166.134-.218.299-.116.594.367.662-.819.138-2.39-.294-.882-.583-1.661-.643-1.732-.059-.071-.504.13-.988.447-3.808 2.495-11.244 2.457-19.146-.097-3.905-1.263-21.523-7.826-21.383-7.966.061-.061 2.283.122 4.939.407 6.502.699 15.638.789 18.045.178 1.012-.256 3.778-1.205 6.145-2.107 4.81-1.833 7.569-2.276 10.142-1.629 3.301.829 5.047 3.111 4.653 6.08l-.208 1.569 2.048 1.54c2.113 1.588 3.2 1.908 3.533 1.039.106-.275.322-.419.48-.321.159.098.481-.129.715-.504.234-.375.607-.682.829-.682.221 0 .639-.339.929-.753.29-.414.697-.753.903-.753.207 0 .53-.245.719-.544.353-.561.03-1.403-1.743-4.526l-.788-1.388 1.119-1 1.12-1.001 2.588 1.355 2.588 1.355 1.525-1.25c.84-.688 1.451-1.373 1.358-1.523-.093-.15.206-.518.663-.817.458-.3.795-.682.75-.85-.045-.167.183-.503.506-.746.54-.407.431-.641-1.374-2.948l-1.961-2.506.843-1.274c.583-.881 1.006-1.21 1.373-1.068 2.528.978 4.622 1.51 5.286 1.343.437-.109.704-.345.594-.524-.111-.179-.042-.325.153-.325s.355-.226.355-.502.159-.502.354-.502c.195 0 .261-.15.147-.334-.113-.184-.038-.335.168-.335.205 0 .281-.15.167-.335-.114-.184-.077-.334.081-.334s.636-.715 1.061-1.59l.773-1.589-2.246-2.038-2.247-2.038.713-1.396c.582-1.141.848-1.365 1.456-1.226 1.966.449 4.598.71 4.952.492.217-.134.291-.412.165-.616-.127-.205-.055-.372.16-.372s.304-.226.198-.502c-.106-.276-.031-.502.167-.502s.273-.226.167-.502c-.106-.276-.03-.502.168-.502.197 0 .273-.226.167-.502-.106-.276-.031-.502.167-.502s.275-.221.172-.491c-.104-.27-.042-.582.137-.692.179-.111.228-.359.109-.55-.118-.192-.04-.457.174-.59.82-.507.198-1.141-3.17-3.231l-1.025-.636.457-1.584c.252-.871.563-1.568.692-1.55.128.019 1.156.016 2.284-.005 1.916-.037 2.073-.1 2.39-.96.186-.506.349-1.222.361-1.59.012-.368.095-1.831.185-3.251l.162-2.582-1.989-.725c-2.092-.763-2.184-.914-1.782-2.927.192-.96.356-1.066 2.206-1.43l1.998-.393-.252-1.54c-.261-1.595-.458-4.091-.472-5.968-.006-.904-.158-1.115-.927-1.286-2.605-.579-2.747-.709-2.755-2.517-.005-1.106.11-1.25 1.401-1.757 1.04-.408 1.308-.65 1.03-.928-.207-.206-.302-.568-.212-.803.09-.235.01-.522-.179-.639-.188-.116-.264-.418-.167-.669.096-.252.021-.553-.168-.669-.188-.117-.257-.433-.154-.703.104-.271.013-.492-.201-.492-.215 0-.298-.15-.184-.334.114-.184.087-.523-.059-.753-.146-.23-.286-.531-.312-.669a1.956 1.956 0 0 0-.131-.419 3.17 3.17 0 0 1-.167-.502 3.17 3.17 0 0 0-.167-.502c-.046-.092-.103-.354-.126-.582-.023-.228-.481-.492-1.018-.585-.802-.141-1.064-.435-1.468-1.648-.449-1.348-.443-1.512.078-1.893.727-.532.722-.494.177-1.482-.255-.46-.431-.949-.391-1.087.039-.138-.089-.251-.284-.251-.195 0-.261-.151-.147-.335.113-.184.038-.335-.168-.335-.205 0-.281-.15-.167-.334.114-.184.039-.335-.167-.335-.206 0-.281-.15-.167-.334.113-.185.038-.335-.168-.335-.206 0-.281-.151-.167-.335.114-.184.038-.334-.167-.334-.206 0-.281-.151-.168-.335.114-.184.039-.335-.167-.335-.206 0-.295-.127-.199-.284.097-.156-.111-.591-.462-.968-.35-.376-.546-.775-.434-.887.111-.112.018-.203-.207-.203-.226 0-.318-.15-.204-.335.114-.184.051-.334-.14-.334s-1.01-1.41-1.821-3.134c-.811-1.724-2.036-4.02-2.722-5.103-1.193-1.882-1.853-2.81-5.207-7.31-3.833-5.142-10.852-11.574-17.548-16.08-3.772-2.537-11.903-6.598-16.33-8.154-3.934-1.383-9.983-2.877-14.288-3.528-4.298-.651-13.933-.92-17.567-.491m-5.143 50.284c1.73.738 3.216 2.083 4.066 3.68.589 1.107.735 1.944.738 4.224.005 3.215-.646 4.975-2.279 6.169-1.209.884-4.535.891-7.421.016-1.165-.354-3.131-.621-4.684-.636-2.344-.024-2.872.087-4.238.89-2.722 1.6-3.597 3.637-3.919 9.121l-.216 3.681-.441-2.175c-.671-3.304-.874-9.836-.395-12.676 1.343-7.959 7.595-13.331 15.064-12.942 1.381.071 3.057.363 3.725.648" fill-rule="evenodd"/></svg>